# xmcd CD database file
#
# Track frame offsets:
#	150
#	18751
#	31221
#	44835
#	62990
#	76131
#	91135
#	104877
#	117080
#	128667
#	141760
#	159252
#	181629
#	200377
#	214504
#	233172
#	248207
#	263371
#
# Disc length: 3610 seconds
#
# Revision: 0
# Processed by: cddbd v1.5.2PL0 Copyright (c) Steve Scherf et al.
# Submitted via: CDex 1.51
#
DISCID=e50e1812
DTITLE=Juice Newton - American Girl Volume II
DYEAR=2003
DGENRE=Country
TTITLE0=Angel of The Morning
TTITLE1=Ask Lucinda
TTITLE2=Listen To The Radio
TTITLE3=Break It To Me Gently
TTITLE4=They Never Made It To Memphis
TTITLE5=Keepin' Me Alive
TTITLE6=I've Been Mistreated
TTITLE7=Crazy Little Thing Called Love
TTITLE8=Night Time With Out You
TTITLE9=You Can't Say You Don't Love Me Anymore
TTITLE10=The Trouble With Angels
TTITLE11=Red Blodded American Girl
TTITLE12=The Sweetest Thing
TTITLE13=Love's Been A Little Bit Hard On Me
TTITLE14=Ride'em Cowboy
TTITLE15=Keepers Of The Peace
TTITLE16=Queen Of Hearts
TTITLE17=It's Late
EXTD=YEAR: 2003
EXTT0=
EXTT1=
EXTT2=
EXTT3=
EXTT4=
EXTT5=
EXTT6=
EXTT7=
EXTT8=
EXTT9=
EXTT10=
EXTT11=
EXTT12=
EXTT13=
EXTT14=
EXTT15=
EXTT16=
EXTT17=
PLAYORDER=
